PathFileType	4	(X/Y/Z)	/Users/mathieubourgeois/Desktop/Analyse/Traitement/Sujet_06/Data/Transformed_Sujet_06_velo_80.trc
DataRate	CameraRate	NumFrames	NumMarkers	Units	OrigDataRate	OrigDataStartFrame	OrigNumFrames
120.000000	120.000000	6	36	mm	120.000000	946	1892
Frame#	Time	RFHD			RANE			STRN			LANI			LKNE			T10			RHUM			RWRB			C7			LFWT			LTOE			RTOE			LWRA			LBWT			RBWT			RFWT			LKNI			RKNI			RKNE			LANE			RANI			LHEE			RHEE			LHUM			LRAD			RRAD			RWRA			LWRB			LFHD			LBHD			RBHD			RSHO			LSHO			CLAV			LCAR			RCAR			
		X1	Y1	Z1	X2	Y2	Z2	X3	Y3	Z3	X4	Y4	Z4	X5	Y5	Z5	X6	Y6	Z6	X7	Y7	Z7	X8	Y8	Z8	X9	Y9	Z9	X10	Y10	Z10	X11	Y11	Z11	X12	Y12	Z12	X13	Y13	Z13	X14	Y14	Z14	X15	Y15	Z15	X16	Y16	Z16	X17	Y17	Z17	X18	Y18	Z18	X19	Y19	Z19	X20	Y20	Z20	X21	Y21	Z21	X22	Y22	Z22	X23	Y23	Z23	X24	Y24	Z24	X25	Y25	Z25	X26	Y26	Z26	X27	Y27	Z27	X28	Y28	Z28	X29	Y29	Z29	X30	Y30	Z30	X31	Y31	Z31	X32	Y32	Z32	X33	Y33	Z33	X34	Y34	Z34	X35	Y35	Z35	X36	Y36	Z36	

947	7.883333333333333	264.5009765625	1361.130981445312	113.9057083129882	-184.8795928955078	483.0398254394531	196.7271270751953	-37.22178649902344	1194.980834960938	49.81176757812492	91.3583984375	362.0726318359375	-57.88144683837891	75.48925018310548	760.3970947265625	-122.3858413696289	-196.7047882080078	1346.101806640625	60.22060394287099	178.9985046386718	1117.005615234375	229.9037475585937	385.1961975097656	1011.537841796875	175.8787536621094	40.57837295532226	1455.366088867188	59.55765533447257	-182.0554504394531	1111.379760742188	-60.59270095825205	244.3104248046875	294.0434265136719	-135.3574371337891	-101.1493225097657	312.2889099121094	196.6559600830078	407.5186157226562	1030.307983398438	-121.4816741943359	-340.3573303222656	1140.660278320312	-6.301231384277456	-335.0962524414062	1136.071655273438	103.047035217285	-177.5872192382813	1101.775268554688	151.6372528076171	94.58051300048828	709.6659545898438	-33.08914184570315	86.0027389526367	726.1053466796875	118.0415802001953	72.86019134521482	774.4454345703125	213.2319641113281	58.50301742553712	354.4445495605469	-133.5527801513672	-161.9337921142578	470.9718322753906	121.754524230957	9.580016136169444	337.3206787109375	-90.37178802490236	-234.9284057617188	506.764892578125	148.8965759277343	182.2669982910157	1117.179565429688	-189.5438079833985	217.43994140625	1163.845825195312	-217.4407806396485	219.5641174316406	1146.6708984375	276.3544921874999	412.3840637207031	1018.499206542969	236.2935485839844	431.5660400390625	1033.812133789062	-180.2579803466797	262.3992309570312	1357.584106445312	-29.72931671142583	196.6195220947266	1493.0302734375	-31.26613998413093	202.0431213378906	1515.504272460938	95.90761566162102	56.87273788452146	1408.749145507812	193.5904235839843	47.38437271118165	1408.997436523438	-94.32411193847665	50.13122558593749	1317.847900390625	50.84812927246087	484.8067932128906	1046.761596679688	-99.14659881591798	486.6349487304688	1046.861083984375	177.7869567871094	
948	7.891666666666667	264.750244140625	1361.371215820312	115.2438201904296	-180.0657806396485	495.6387329101562	196.6658477783203	-36.27156066894532	1195.163940429688	49.66484069824211	84.57778930664062	347.2132873535156	-56.10873413085939	67.26894378662111	748.1300048828125	-123.0742111206055	-196.2659454345703	1346.093994140625	59.83501815795888	179.1511077880859	1116.953735351562	230.0582122802734	385.3102111816406	1011.545959472656	175.6878814697266	40.97866821289062	1455.727294921875	60.27028656005851	-181.7947082519531	1110.90869140625	-61.38382720947275	240.7355499267578	282.0654296875	-135.5117492675781	-97.80193328857425	324.4632568359375	196.8667602539062	407.8026733398438	1030.326049804688	-121.8907470703125	-339.6120910644531	1140.626831054688	-6.882967948913686	-334.3443603515625	1136.323852539062	102.4747467041014	-176.7411193847657	1102.067260742188	150.8013763427734	85.25483703613281	697.2260131835938	-34.463249206543	92.82776641845702	735.8587646484375	118.0901947021484	79.25763702392575	784.0906372070312	213.6642608642578	54.46253204345705	341.5921325683594	-133.9838256835938	-157.2270812988282	483.2637939453125	121.7686691284179	5.623001098632824	324.3916320800781	-90.84107971191408	-230.1187591552735	519.6883544921875	148.7456817626953	183.0203094482422	1118.477661132812	-190.1686096191407	218.5479431152344	1165.218017578125	-217.5332794189454	219.7826995849609	1146.66748046875	276.4304504394531	412.5536193847656	1018.520935058594	236.0983581542969	431.9085083007812	1033.779174804688	-180.5840301513672	263.1846923828125	1358.0068359375	-28.38943099975591	197.4183197021484	1493.4423828125	-30.00955009460456	202.3804931640625	1515.788452148438	97.21450805664055	56.90435791015623	1408.648681640625	194.1363525390624	48.39124679565431	1409.944091796875	-93.51013183593759	50.79431915283202	1318.31884765625	51.18707656860344	485.0384521484375	1046.609130859375	-99.47408294677736	486.8060913085938	1046.830078125	177.5441589355469	
949	7.899999999999999	264.9937133789062	1361.601684570312	116.5447845458984	-175.1379547119141	507.3805236816406	196.6511077880859	-35.29753112792969	1195.344604492188	49.48895645141594	79.48692321777344	335.1032104492188	-56.62096786499025	58.21010208129884	736.3107299804688	-123.7987594604492	-195.7725830078125	1346.027587890625	59.38402938842763	179.2824096679687	1116.913330078125	230.3353424072265	385.427978515625	1011.590515136719	175.5501403808594	41.4135513305664	1455.976806640625	61.01918029785148	-181.4801940917969	1110.319458007812	-62.15303802490244	236.2253723144532	270.3529052734375	-135.6622467041016	-93.00541687011722	336.864013671875	197.06640625	407.9738159179688	1030.287109375	-122.1741180419922	-338.8245849609375	1140.575805664062	-7.447351455688588	-333.4605407714844	1136.545654296875	102.0081710815429	-175.7632141113282	1102.311767578125	149.9349822998046	84.91475677490234	689.27294921875	-32.24724578857425	99.65824127197264	745.9519653320312	118.0110168457031	85.23066711425778	794.0906372070312	214.1905670166015	49.4629592895508	329.2225036621094	-134.5538024902344	-152.0362548828125	495.2882080078125	121.755630493164	0.7180245518684499	312.0544738769531	-91.46534729003908	-225.0773162841797	531.9815673828125	148.6716613769531	183.8904266357422	1119.850952148438	-190.9292297363282	219.7818298339844	1166.685913085938	-217.6681213378907	220.0545043945312	1146.703979492188	276.5828857421874	412.7077941894531	1018.552307128906	235.9239959716797	432.3415832519531	1033.814086914062	-180.8762817382812	264.0369567871094	1358.429077148438	-27.09387207031255	198.24560546875	1493.8544921875	-28.8021430969239	202.7068328857422	1516.02783203125	98.4572448730468	56.87000274658201	1408.574096679688	194.7660369873046	49.43867874145509	1410.955078125	-92.6162643432618	51.57595062255859	1318.745483398438	51.61010360717766	485.312255859375	1046.475830078125	-99.77419281005861	486.9622192382812	1046.7841796875	177.3688354492188	
950	7.908333333333333	265.2838134765625	1361.803466796875	117.8405075073242	-170.8915710449219	519.2739868164062	197.5791931152343	-34.26215362548829	1195.5087890625	49.26847076416008	73.69772338867188	323.5413818359375	-57.14461898803712	49.20486450195314	724.9803466796875	-124.4754104614258	-195.2466888427734	1345.951782226562	59.04635620117177	179.4159088134765	1116.894653320312	230.8434295654297	385.5449829101562	1011.658142089844	175.4729919433594	41.8533592224121	1456.213989257812	61.76135635375968	-181.1559143066406	1109.659057617188	-62.96880340576181	230.837890625	258.7838439941406	-135.7796173095703	-86.74830627441409	349.5365600585938	197.3057403564453	408.2848815917969	1030.347900390625	-122.4918746948242	-337.9553833007812	1140.439086914062	-7.932087898254506	-332.5538635253906	1136.756591796875	101.5708847045897	-174.7019195556641	1102.51318359375	149.0403900146484	74.98265075683594	677.7255249023438	-31.65083312988284	106.2698287963867	755.6597900390625	117.7887115478515	91.09576416015622	804.0476684570312	214.4899444580078	43.73132324218751	317.4750061035156	-135.1102600097657	-146.70556640625	506.97900390625	121.766128540039	-5.091500759124744	300.7718200683594	-92.42507171630861	-220.1058197021485	543.3875732421875	148.8038940429687	184.8336334228516	1121.295532226562	-191.8599700927735	221.1050109863282	1168.22021484375	-217.8330688476563	220.3942108154297	1146.8173828125	276.8093261718749	412.9016723632812	1018.59814453125	235.7866058349609	432.7417907714844	1033.831787109375	-181.1628112792969	264.8608093261719	1358.833984375	-25.79748916625982	199.2678985595703	1494.3896484375	-28.4853420257569	203.0708770751953	1516.283081054688	99.71848297119134	56.86118698120115	1408.458129882812	195.3287811279296	50.56077194213869	1411.979248046875	-91.70921325683602	52.39498138427734	1319.225463867188	51.90118026733391	485.6042175292969	1046.358520507812	-100.0181884765625	487.1398010253906	1046.733520507812	177.2132110595703	
951	7.916666666666667	265.5845947265625	1361.996215820312	119.1081848144531	-164.2906799316407	530.3187866210938	196.6608276367187	-33.16275024414063	1195.674072265625	49.02673721313469	67.84919738769533	313.2618408203125	-58.10813903808595	40.1104202270508	714.3024291992188	-125.1469879150391	-194.6800384521484	1345.837890625	58.61547470092763	179.604248046875	1116.865600585938	231.3712615966797	385.6537170410156	1011.73388671875	175.4600677490234	42.27754974365234	1456.46728515625	62.48735427856437	-180.7258148193359	1108.982055664062	-63.74403381347665	224.5693969726563	247.4666900634766	-135.9385070800781	-80.46560668945315	363.1715698242188	197.361831665039	408.6547241210938	1030.47900390625	-122.9156112670898	-337.0836486816406	1140.265625	-8.396904945373645	-331.5670776367188	1136.967407226562	101.1895294189452	-173.5518798828125	1102.675048828125	148.1134490966796	65.48080444335938	666.9454956054688	-31.77475357055667	115.6445388793945	766.2572021484375	117.0267028808593	96.64763641357419	813.8999633789062	214.6820220947265	37.21413803100587	306.4496459960938	-135.6373748779297	-141.7715454101563	518.2310180664062	121.5726165771484	-11.79949665069579	290.3857116699219	-93.24698638916017	-214.8597869873047	554.4217529296875	148.8988494873046	185.8306274414063	1122.78271484375	-192.8840484619141	222.4894714355469	1169.80615234375	-218.0692443847657	220.7150268554687	1146.956665039062	277.1064147949218	413.0910949707031	1018.651000976562	235.7166595458984	433.175537109375	1033.872924804688	-181.4598541259766	265.6706848144531	1359.249755859375	-24.55514144897466	200.1254577636719	1494.857788085938	-27.37188911437995	203.455322265625	1516.493774414062	100.983543395996	56.85041427612303	1408.313598632812	195.9297637939452	51.7326011657715	1413.016967773438	-90.77349853515634	53.33757781982421	1319.67333984375	52.29080581665032	485.84521484375	1046.258544921875	-100.2277603149414	487.3353881835938	1046.680053710938	177.0832061767578	
952	7.925	265.9014587402344	1362.167602539062	120.3011093139648	-158.668212890625	540.8519897460938	196.6277313232421	-32.0921859741211	1195.802490234375	48.82812881469719	60.80760574340821	303.1900634765625	-58.52917861938478	31.08757400512697	704.4144897460938	-125.7271347045899	-194.1250610351562	1345.700927734375	58.20010375976552	179.7806091308593	1116.830444335938	231.9317169189453	385.78857421875	1011.802734375	175.4642639160156	42.71915435791015	1456.54931640625	63.23998260498038	-180.2646484375	1108.236206054688	-64.47003936767588	217.550033569336	236.4418029785156	-136.0460968017578	-73.1838302612305	374.0637512207031	196.6170959472656	408.9045104980469	1030.640014648438	-123.2052459716797	-336.1457214355469	1140.094848632812	-8.858657836914173	-330.5761108398438	1137.164428710938	100.8195190429686	-172.3927154541016	1102.8017578125	147.2626190185546	55.71826553344727	656.8190307617188	-31.53519821166995	119.107780456543	775.8925170898438	117.9110336303711	100.8468322753906	824.1854858398438	215.362319946289	30.08218574523928	296.1497497558594	-136.0129852294922	-137.2730712890625	529.0352783203125	121.191421508789	-18.91357231140136	280.5427551269531	-93.69992828369142	-209.7910919189453	564.5110473632812	149.0660705566406	186.8134765625	1124.226684570312	-193.9236602783203	223.8618927001953	1171.36767578125	-218.3912048339844	221.0633087158203	1147.037353515625	277.4889526367187	413.2785339355468	1018.713745117188	235.6640319824219	433.630126953125	1033.95263671875	-181.7434387207031	266.4582214355469	1359.676635742188	-23.36909484863286	200.9147033691406	1495.262817382812	-26.24923896789558	203.9130249023438	1516.728271484375	102.2411575317382	56.83322525024412	1408.174438476562	196.5347595214843	52.91736602783205	1414.042114257812	-89.83343505859384	54.26971435546874	1320.126953125	52.61489868164055	486.0879211425781	1046.1396484375	-100.4325485229492	487.5110168457031	1046.630859375	176.9855499267578	
